PathFileType  4	(X/Y/Z) C:\Users\antoi\Documents\MyRepositories\mobilecap\ResultsAnalysis
DataRate	CameraRate	NumFrames	NumMarkers	Units	OrigDataRate	OrigDataStartFrame	OrigNumFrames
100.0	100.0	6	51	mm	100.0	1145	2288
Frame#	Time	r_knee			r_shank_antsup			r_ankle			r_calc			r_5meta			r_toe			L_knee			L_shank_antsup			L_ankle			L_calc			L_5meta			L_toe			r_sh2			r_sh3			r_sh4			L_sh2			L_sh3			r_thigh1			r_thigh2			r_thigh3			r_thigh4			r_thigh5			L_thigh1			L_thigh2			L_thigh3			L_thigh4			r.ASIS			r.PSIS			L.ASIS			L.PSIS			C7			R_Shoulder			L_Shoulder			R_Sternum			L_Sternum			R_humerus			R_elbow_med			R_elbow_lat			R_forearm			R_wrist_radius			R_wrist_ulna			L_humerus			L_elbow_med			L_elbow_lat			L_forearm			L_wrist_radius			L_wrist_ulna			R_HJC			L_HJC			R_HJC_reg			L_HJC_reg			
		X1	Y1	Z1	X2	Y2	Z2	X3	Y3	Z3	X4	Y4	Z4	X5	Y5	Z5	X6	Y6	Z6	X7	Y7	Z7	X8	Y8	Z8	X9	Y9	Z9	X10	Y10	Z10	X11	Y11	Z11	X12	Y12	Z12	X13	Y13	Z13	X14	Y14	Z14	X15	Y15	Z15	X16	Y16	Z16	X17	Y17	Z17	X18	Y18	Z18	X19	Y19	Z19	X20	Y20	Z20	X21	Y21	Z21	X22	Y22	Z22	X23	Y23	Z23	X24	Y24	Z24	X25	Y25	Z25	X26	Y26	Z26	X27	Y27	Z27	X28	Y28	Z28	X29	Y29	Z29	X30	Y30	Z30	X31	Y31	Z31	X32	Y32	Z32	X33	Y33	Z33	X34	Y34	Z34	X35	Y35	Z35	X36	Y36	Z36	X37	Y37	Z37	X38	Y38	Z38	X39	Y39	Z39	X40	Y40	Z40	X41	Y41	Z41	X42	Y42	Z42	X43	Y43	Z43	X44	Y44	Z44	X45	Y45	Z45	X46	Y46	Z46	X47	Y47	Z47	X48	Y48	Z48	X49	Y49	Z49	X50	Y50	Z50	X51	Y51	Z51	

1145	11.44000000	-112.74224	447.41754	-431.73870	-84.80502	334.38390	-438.82245	-235.51951	93.96349	-443.26404	-288.73020	52.51050	-491.06746	-130.25397	40.39862	-401.59762	-92.34988	56.75335	-443.26794	-104.79185	445.20593	-790.78006	-75.25992	332.19262	-755.65750	-245.06726	93.75854	-795.85507	-297.33873	54.03203	-754.74395	-133.20491	37.44487	-819.00507	-93.35765	54.75964	-765.81707	-127.28166	229.08085	-447.03472	-140.94665	351.66953	-391.62572	-195.84052	255.88959	-405.48081	-121.41754	374.94660	-821.12177	-169.63107	264.13569	-838.41757	-242.52039	725.73995	-442.32412	-169.05489	650.57768	-435.39931	-188.52695	597.71089	-396.60682	-321.97714	651.52565	-412.48936	-238.46083	572.50977	-399.51029	-236.20304	705.33959	-801.10836	-136.16034	615.24663	-797.22834	-320.43197	635.01686	-828.26085	-214.54632	539.65130	-821.90374	-239.75427	776.88412	-494.08454	-384.48942	890.56670	-566.94318	-233.10438	774.21777	-739.29195	-384.98094	892.25673	-682.94072	-90.64619	1241.58688	-600.48527	-54.52788	1187.91387	-452.69154	-30.98538	1193.82964	-748.48091	-9.35614	1132.33185	-580.80620	-6.51803	1129.03693	-620.97260	-106.84622	1079.78956	-380.94349	-297.11352	965.10072	-401.03464	-247.80339	961.14315	-332.17492	-142.47699	919.48399	-379.38035	-60.19806	907.51500	-437.93174	-64.09193	870.95257	-428.51377	-77.15821	1066.97808	-832.93673	-244.35021	943.87830	-833.33016	-205.27862	943.79369	-902.77813	-113.88511	911.06783	-854.34841	-23.20101	897.74748	-766.05420	-27.36544	865.69978	-772.30512	-350.22331	749.11229	-522.77341	-342.72514	742.27194	-711.87878	-331.47086	741.51929	-528.51834	-332.15636	743.87767	-690.40542	
1146	11.45000000	-112.15180	446.86431	-431.54686	-84.12103	333.78268	-438.82503	-235.40969	93.92635	-443.29604	-288.68137	52.41512	-491.05967	-130.24986	40.41020	-401.58975	-92.31964	56.76224	-443.31112	-104.74657	444.79726	-791.07947	-74.91650	331.78381	-755.82840	-245.04044	93.66634	-795.82000	-297.33908	53.99648	-754.77061	-133.20674	37.42917	-818.99697	-93.36132	54.74202	-765.82567	-126.85405	228.48725	-446.88344	-140.27533	351.28336	-391.56059	-195.65395	255.62531	-405.49238	-120.93881	374.56424	-821.50553	-169.29532	263.66259	-838.24209	-246.39724	723.03790	-442.30525	-171.76075	648.55275	-435.83084	-190.28648	596.05521	-396.61832	-324.38183	648.40615	-411.01596	-239.79178	569.81120	-399.46004	-240.12960	702.78451	-801.23721	-138.74507	614.35039	-797.23243	-323.30385	631.25089	-828.45398	-215.98883	537.68271	-822.38539	-243.20228	771.09809	-494.40294	-387.51296	885.61995	-566.66578	-237.19060	768.68159	-739.51008	-388.19664	887.52358	-682.70898	-90.15643	1233.62504	-600.61342	-54.01636	1179.55149	-452.72733	-30.87226	1185.42719	-748.15107	-9.43774	1123.78357	-580.68873	-6.89530	1120.47423	-620.88960	-106.20591	1071.43237	-381.02786	-296.65802	956.99291	-400.26406	-247.01826	952.77511	-331.90771	-141.97318	911.36018	-379.68491	-60.05407	899.43994	-438.68207	-63.85455	862.83207	-429.34861	-76.80222	1058.56122	-832.38636	-243.23730	934.65789	-833.48952	-203.82430	934.59986	-902.62045	-112.67437	902.54708	-853.60828	-22.70562	889.70065	-764.24650	-26.34937	857.77724	-771.03413	-353.89977	743.95513	-522.79453	-346.89797	737.32151	-711.92680	-335.22336	736.18676	-528.72293	-336.17667	738.84105	-690.52595	
1147	11.46000000	-111.71895	446.32814	-431.42739	-83.51223	333.26514	-438.81352	-235.37253	93.90734	-443.25966	-288.65631	52.30324	-491.05135	-130.24070	40.44419	-401.57569	-92.32435	56.74447	-443.35922	-104.80478	444.45227	-791.44505	-74.69781	331.43757	-756.12334	-245.01816	93.47955	-795.78111	-297.36303	53.92187	-754.86302	-133.23295	37.37402	-819.02607	-93.36475	54.70865	-765.85081	-126.57692	228.11194	-446.74289	-139.67649	350.85732	-391.54290	-194.51047	254.01981	-405.96801	-120.63282	374.15246	-821.70591	-169.06800	263.22415	-838.27647	-250.31258	720.39332	-442.40692	-174.84045	645.94095	-436.61678	-192.04859	594.41871	-396.64811	-327.00973	644.58881	-410.70770	-241.09520	567.33398	-399.38993	-244.09727	700.30957	-801.55766	-141.35267	613.34378	-797.32359	-326.24017	627.41949	-828.71829	-217.59115	535.78821	-822.85919	-246.57336	765.41407	-494.76368	-390.67507	880.71587	-566.35446	-241.05600	763.56734	-739.49734	-391.43574	882.71800	-682.46156	-89.78736	1225.73889	-600.30467	-53.61021	1171.30937	-452.77439	-30.97323	1177.20415	-747.99409	-9.57981	1115.23421	-580.58767	-7.32989	1112.08735	-620.84310	-105.67196	1063.00980	-381.17529	-296.33987	948.94676	-399.52490	-246.34101	944.47641	-331.52627	-141.58107	903.15742	-380.10862	-59.96848	891.49426	-439.38730	-63.67436	854.77579	-430.26298	-76.51689	1050.28286	-831.95667	-242.29020	925.57093	-833.79520	-202.51855	925.62524	-902.67990	-111.53299	894.14959	-852.75848	-22.11081	881.94253	-762.67843	-25.41877	849.91033	-769.57336	-357.45547	738.77375	-522.84825	-350.78415	732.49939	-712.00454	-338.83826	731.18579	-528.98255	-339.89629	733.97147	-690.52526	
1148	11.47000000	-111.51102	445.84043	-431.41307	-83.04880	332.91603	-438.70552	-235.36056	93.86901	-443.21966	-288.66949	52.21876	-491.06868	-130.24714	40.46174	-401.58270	-92.35344	56.70367	-443.40378	-105.04075	444.06412	-791.80170	-74.55311	331.13758	-756.51557	-245.01079	93.27668	-795.76977	-297.38117	53.78033	-754.87292	-133.27542	37.30086	-819.08749	-93.37257	54.65581	-765.90006	-126.43732	227.90579	-446.77606	-139.22855	350.46740	-391.50207	-194.14343	253.75098	-406.18985	-120.54483	373.73862	-821.80401	-169.10226	262.88876	-838.59383	-254.16491	717.74625	-442.52330	-177.93498	644.23494	-437.19611	-193.82952	592.78010	-396.70839	-329.61800	640.76914	-410.59115	-242.42707	565.06179	-399.12696	-248.19093	697.67420	-801.74636	-144.17379	612.22676	-797.62731	-329.30674	623.62984	-828.92560	-219.20059	533.64869	-823.01725	-249.90012	759.85066	-495.04097	-393.69326	875.81728	-565.90639	-244.82573	758.51392	-739.51405	-394.66225	877.95496	-682.03884	-89.56830	1217.90406	-599.74160	-53.20393	1163.15439	-452.68617	-31.22969	1169.24386	-748.00611	-9.86744	1106.75754	-580.40384	-7.83719	1103.72210	-620.86309	-105.27431	1054.56900	-381.16347	-296.22155	940.99679	-399.01358	-245.83573	936.17826	-331.21057	-141.26192	895.01859	-380.40450	-59.92404	883.58381	-440.13202	-63.61866	846.86091	-431.01942	-76.36305	1042.16618	-831.63029	-241.44928	916.58860	-833.81539	-201.38645	916.65977	-902.47071	-110.37292	885.64902	-852.00391	-21.54439	874.29760	-761.24705	-24.56363	842.15942	-768.20688	-360.88356	733.63286	-522.80325	-354.60304	727.73611	-711.98467	-342.29282	726.21275	-529.07947	-343.63869	729.18312	-690.43549	
1149	11.48000000	-111.41830	445.38017	-431.44891	-82.75869	332.65839	-438.54357	-235.34027	93.78791	-443.21336	-288.68456	52.14788	-491.09724	-130.27387	40.41982	-401.66079	-92.38187	56.63770	-443.48415	-105.48720	443.60452	-792.25223	-74.46285	330.86782	-757.03631	-245.03489	93.09763	-795.80026	-297.38376	53.58535	-754.80843	-133.30867	37.22987	-819.14134	-93.40356	54.57148	-765.93798	-126.37838	227.80820	-446.89237	-138.92920	350.13601	-391.52058	-194.75451	254.89491	-406.02567	-120.61211	373.37361	-822.05136	-169.37899	262.70259	-838.94209	-257.88183	715.05960	-442.64446	-180.63788	643.91983	-437.20243	-195.62311	591.17868	-396.78254	-332.10133	637.17054	-410.20964	-243.80198	562.85757	-398.76850	-252.31999	694.89870	-801.92115	-147.07153	611.08921	-797.97943	-332.50230	619.78405	-828.85133	-220.91055	531.23555	-823.03838	-253.27377	754.39531	-495.03024	-396.51353	871.01034	-565.63061	-248.50588	753.11679	-739.99548	-397.78098	873.23118	-681.63348	-89.48594	1210.07177	-599.47701	-52.85720	1154.95561	-452.54839	-31.50278	1161.42066	-748.00475	-10.27915	1098.41482	-580.24570	-8.49285	1095.28337	-620.93932	-105.00944	1046.26822	-381.13803	-296.09809	932.99080	-398.57448	-245.39383	927.85319	-331.01495	-140.99885	887.02222	-380.54932	-59.90896	875.66743	-440.90116	-63.61470	839.03566	-431.70999	-76.35375	1034.15593	-831.25374	-240.75258	907.73049	-833.41229	-200.48245	907.67428	-901.87446	-109.28356	876.91839	-851.56197	-21.08936	866.72795	-759.95683	-23.77099	834.53617	-766.95273	-364.31112	728.63417	-522.74094	-358.46366	722.88124	-711.94087	-345.83087	721.08327	-528.92433	-347.59815	724.17843	-690.59465	
1150	11.49000000	-111.35975	444.96319	-431.41616	-82.54785	332.34902	-438.40047	-235.33566	93.68831	-443.23552	-288.68515	52.09100	-491.12715	-130.30850	40.35427	-401.77204	-92.39784	56.55872	-443.59363	-106.03488	443.18057	-792.81876	-74.38666	330.59955	-757.61336	-245.08168	92.94522	-795.84728	-297.39140	53.42179	-754.83532	-133.31577	37.15625	-819.17066	-93.46479	54.45702	-765.92091	-126.32887	227.71824	-446.92685	-138.71309	349.88468	-391.60716	-194.63835	254.81096	-406.00266	-120.76707	373.09888	-822.51472	-169.70748	262.62523	-839.21008	-261.49294	712.41323	-442.77568	-183.21070	643.47580	-437.10568	-197.42284	589.60388	-396.84700	-334.56427	633.61055	-409.79914	-245.21346	560.62467	-398.50153	-256.39959	692.21643	-802.39846	-149.93699	609.93018	-798.28147	-335.69013	615.79111	-828.49996	-222.79179	528.90375	-823.23272	-256.73061	748.99816	-494.71925	-399.36035	866.26312	-565.65270	-252.13278	747.60343	-740.69291	-400.80210	868.44756	-681.41857	-89.57495	1202.34361	-599.48085	-52.63529	1146.73174	-452.43588	-31.72069	1153.58486	-747.84503	-10.74137	1090.19198	-580.26824	-9.26791	1086.91736	-621.03388	-104.79033	1038.22737	-381.26843	-296.02383	924.88549	-398.06635	-244.91021	919.56573	-330.70494	-140.82197	879.04003	-380.78543	-59.93979	867.81766	-441.60861	-63.60137	831.18626	-432.59384	-76.47995	1026.26111	-830.84840	-240.26148	899.11097	-832.93415	-199.79757	898.90669	-901.26853	-108.60018	868.41117	-851.16540	-20.69571	859.26981	-758.74390	-23.09779	827.03510	-765.65320	-367.83402	723.72542	-522.73378	-362.26501	717.93867	-711.94153	-349.57908	715.91361	-528.62335	-351.60038	718.97571	-690.95561	
